<svg width="1170" height="1106" viewBox="0 0 1170 1106" fill="none" xmlns="http://www.w3.org/2000/svg">
<path d="M1051.76 573.774C1044.05 566.371 1035.93 558.949 1027.4 551.508C1033.35 546.204 1039.13 540.919 1044.73 535.652C1150.13 435.981 1194.65 335.978 1153.41 275.921C1113.88 218.296 996.27 201.113 848.98 225.202C834.49 227.596 820.065 230.285 805.706 233.268C802.948 225.312 800.036 217.393 796.972 209.511C747 82.8225 666.295 0.444778 583.818 0.500028C504.755 0.500028 428.319 77.6843 379.529 197.08C374.714 208.866 370.27 220.727 366.199 232.661C356.611 230.672 346.98 228.83 337.305 227.136C181.938 200.339 56.843 218.019 15.67 278.187C-23.7957 335.812 17.443 430.124 116.009 525.265C125.815 534.657 135.884 543.865 146.215 552.89C134.001 563.387 122.51 573.94 111.74 584.437C15.5387 678.252 -23.336 770.961 16.064 828.366C56.7773 887.705 180.099 907.097 330.279 882.235C342.449 880.209 354.554 877.925 366.593 875.384C370.97 888.312 375.808 901.149 381.105 913.893C429.698 1030.86 505.675 1105.5 584.475 1105.5C665.901 1105.5 747.459 1025.22 796.906 903.34C800.846 893.727 804.458 883.727 808.004 873.45C823.545 876.691 839.196 879.564 854.956 882.069C999.619 905.108 1114.47 887.042 1153.8 829.582C1194.45 770.188 1152.49 670.627 1051.76 573.774ZM64.2634 301.723C89.6107 264.706 191.854 250.23 326.011 273.435C334.591 274.908 343.325 276.566 352.212 278.408C339.098 327.158 329.84 376.586 324.5 426.367C276.121 454.99 229.992 486.217 186.403 519.85C176.816 511.489 167.469 502.925 158.364 494.159C73.8507 412.72 40.492 336.475 64.2634 301.723ZM319.51 618.195C286.02 596.813 254.828 574.934 226.526 552.945C254.762 531.066 285.954 509.297 319.444 487.971C318.218 509.666 317.627 531.379 317.671 553.111C317.671 574.842 318.284 596.537 319.51 618.195ZM319.51 835.88C262.591 846.545 203.826 848.306 146.15 841.074C130.338 840.033 114.948 836.275 100.931 830.032C86.9144 823.788 74.5687 815.192 64.6574 804.774C40.689 769.967 71.9463 695.49 154.227 615.267C164.558 605.211 175.24 595.414 186.272 585.874C229.88 619.714 276.101 651.091 324.632 679.799C330.025 730.209 339.37 780.264 352.606 829.637C341.661 831.957 330.607 834.057 319.444 835.935L319.51 835.88ZM785.743 391.725C763.723 380.049 741.44 368.76 718.894 357.857C696.655 347.102 674.175 336.733 651.455 326.751C688.808 313.478 726.919 301.769 765.649 291.668C774.342 324.715 781.049 358.11 785.743 391.725ZM432.653 212.384C474.417 110.171 536.275 47.7388 583.949 47.7388C634.71 47.6835 700.639 115.033 743.782 224.373C746.584 231.519 749.211 238.701 751.662 245.921C695.027 260.688 639.615 278.592 585.788 299.513C532.14 278.335 476.854 260.227 420.308 245.313C424.117 234.263 428.232 223.286 432.653 212.384ZM406.387 291.06C444.939 301.269 482.855 313.108 519.99 326.53C473.936 346.494 429.107 368.244 385.505 391.781C390.758 356.531 397.784 322.773 406.387 291.06ZM385.57 714.275C407.328 726.025 429.414 737.314 451.828 748.143C474.68 759.193 497.817 769.801 521.238 779.967C483.836 793.854 445.611 806.118 406.715 816.708C397.677 782.894 390.621 748.727 385.57 714.33V714.275ZM743.848 888.091C726.377 934.89 698.82 978.583 662.552 1016.99C653.598 1028 642.055 1037.35 628.637 1044.46C615.219 1051.56 600.211 1056.28 584.54 1058.32C536.669 1058.32 475.665 998.37 434.164 898.312C429.261 886.489 424.751 874.555 420.636 862.51C477.451 847.091 532.957 828.447 586.773 806.708C641.057 827.799 696.928 845.867 754.026 860.798C750.874 869.969 747.481 879.067 743.848 888.091ZM767.619 814.94C728.385 804.631 689.771 792.72 651.914 779.249C674.197 769.414 696.633 759.009 719.223 748.033C742.425 736.762 765.014 725.214 786.991 713.391C782.602 747.497 776.136 781.391 767.619 814.94ZM796.972 552.89C796.972 586.445 795.724 619.963 793.229 653.445C760.855 671.898 726.709 689.91 691.183 707.148C655.723 724.33 620.723 740.132 586.313 754.442C550.109 739.856 514.605 724.128 479.802 707.258C445.218 690.499 411.421 672.653 378.413 653.721C375.348 620.202 373.816 586.647 373.816 553.055C373.816 519.5 375.305 485.963 378.281 452.445C444.293 414.526 513.616 380.856 585.657 351.724C621.379 366.347 656.467 382.02 690.92 398.742C725.505 415.464 759.433 433.126 792.704 451.727C795.549 485.392 796.972 519.113 796.972 552.89ZM859.749 271.501C985.961 250.893 1081.05 264.761 1104.88 299.513C1130.3 336.531 1093.92 418.19 1002.84 504.27C997.803 509.021 992.593 513.791 987.208 518.579C942.849 484.839 895.81 453.68 846.419 425.317C841.445 376.087 832.56 327.192 819.824 278.96C833.395 276.161 846.704 273.674 859.749 271.501ZM851.213 486.148C884.542 506.615 916.587 528.523 947.217 551.785C916.729 575.419 884.793 597.697 851.541 618.527C852.548 596.648 853.051 574.769 853.051 552.89C853.051 530.642 852.439 508.395 851.213 486.148ZM1105.28 805.99C1081.37 840.853 989.178 855.383 865.397 835.714C851.213 833.468 836.679 830.779 821.794 827.648C834.223 778.792 842.714 729.286 847.207 679.467C896.511 650.627 943.398 618.968 987.537 584.714C995.285 591.454 1002.64 598.158 1009.6 604.825C1049.07 640.934 1080.3 682.85 1101.73 728.474C1108.59 740.504 1112.44 753.59 1113.05 766.923C1113.66 780.255 1111.02 793.552 1105.28 805.99ZM526.163 466.7C506.076 476.458 489.88 491.009 479.622 508.512C469.364 526.015 465.504 545.684 468.531 565.032C471.559 584.38 481.337 602.539 496.629 617.212C511.922 631.885 532.042 642.413 554.446 647.465C576.849 652.518 600.531 651.867 622.495 645.596C644.46 639.326 663.721 627.716 677.844 612.235C691.966 596.754 700.316 578.098 701.837 558.625C703.358 539.151 697.982 519.736 686.389 502.833C678.69 491.607 668.438 481.768 656.218 473.877C643.999 465.985 630.051 460.196 615.172 456.841C600.293 453.485 584.774 452.629 569.502 454.321C554.229 456.012 539.503 460.219 526.163 466.7Z" fill="#707070" fill-opacity="0.1"/>
</svg>
