<svg width="284" height="35" viewBox="0 0 284 35" fill="none" xmlns="http://www.w3.org/2000/svg">
<path d="M5.85371 34.0383V4.69109e-06L0 0V34.0383L5.85371 34.0383Z" fill="#F3BD00"/>
<path d="M12.5989 13.5503V4.69109e-06L34.1347 11.8069C33.6475 12.3115 33.1389 12.9042 32.7051 13.5503H12.5989Z" fill="#F3BD00"/>
<path d="M34.2072 22.1916C33.8172 21.7316 33.3612 21.1464 32.9397 20.488H12.5989V34.0383L34.2072 22.1916Z" fill="#F3BD00"/>
<path d="M36.6229 13.1173L43.8607 17.0614L36.6229 21.0055C36.6229 21.0055 34.2104 18.9867 34.2104 17.0614C34.2104 15.136 36.6229 13.1173 36.6229 13.1173Z" fill="#F3BD00"/>
<path d="M60.9403 25.7459C59.3582 25.7459 58.1239 25.3027 57.2375 24.4163C56.3623 23.5298 55.9247 22.3068 55.9247 20.7471V11.5407H53.1645V8.61216H55.9752V4.20249L59.3918 1.71154V8.61216H63.7679V11.5407H59.3918V20.1581C59.3918 21.0557 59.577 21.7009 59.9473 22.0936C60.3175 22.4751 60.8505 22.6659 61.5462 22.6659C62.2194 22.6659 62.9544 22.4863 63.751 22.1273L63.7679 25.2746C63.4312 25.3981 63.0049 25.5046 62.4887 25.5944C61.9726 25.6954 61.4564 25.7459 60.9403 25.7459Z" fill="#2E2E2E"/>
<path d="M73.766 25.7459C71.9819 25.7459 70.4672 25.3588 69.2217 24.5846C67.9762 23.7991 67.0393 22.75 66.411 21.4372C65.7826 20.1244 65.4684 18.677 65.4684 17.0949C65.4684 15.5352 65.7658 14.0878 66.3605 12.7525C66.9664 11.4061 67.8696 10.3289 69.0702 9.52102C70.282 8.70192 71.7519 8.29237 73.4799 8.29237C75.2864 8.29237 76.7563 8.70753 77.8895 9.53785C79.034 10.3569 79.8531 11.3948 80.3468 12.6515C80.8518 13.9082 81.1042 15.2042 81.1042 16.5395C81.1042 16.8536 81.0874 17.1622 81.0537 17.4651C81.0313 17.7681 81.0032 17.9813 80.9696 18.1047H69.1376C69.2946 19.5185 69.7547 20.6181 70.5177 21.4035C71.2919 22.189 72.3803 22.5817 73.7828 22.5817C74.6468 22.5817 75.4267 22.4358 76.1223 22.1441C76.8292 21.8524 77.4968 21.3643 78.1252 20.6798L80.5152 22.7837C79.5838 23.7935 78.5684 24.5397 77.4688 25.0222C76.3804 25.5046 75.1461 25.7459 73.766 25.7459ZM77.6708 15.5801C77.6932 15.2098 77.6595 14.8564 77.5698 14.5198C77.3902 13.5324 76.9414 12.7357 76.2233 12.1298C75.5052 11.5239 74.5795 11.2209 73.4462 11.2209C72.1895 11.2209 71.2021 11.6136 70.484 12.3991C69.7771 13.1845 69.3283 14.2449 69.1376 15.5801H77.6708Z" fill="#2E2E2E"/>
<path d="M90.7658 25.7459C89.0827 25.7459 87.6409 25.3476 86.4403 24.5509C85.2397 23.7542 84.3364 22.6939 83.7305 21.3699C83.1246 20.0459 82.8216 18.604 82.8216 17.0444C82.8216 15.5184 83.119 14.0878 83.7137 12.7525C84.3084 11.4173 85.2004 10.3401 86.3898 9.52102C87.5904 8.70192 89.0378 8.29237 90.7321 8.29237C92.3815 8.29237 93.8234 8.70192 95.0576 9.52102C96.2919 10.3401 97.2176 11.5463 97.8347 13.1396L94.5359 14.4188C94.2441 13.5211 93.7617 12.803 93.0884 12.2644C92.4152 11.7259 91.6298 11.4566 90.7321 11.4566C89.7447 11.4566 88.92 11.7202 88.258 12.2476C87.6072 12.7637 87.1247 13.4482 86.8105 14.301C86.5076 15.1425 86.3561 16.057 86.3561 17.0444C86.3561 18.043 86.5076 18.9631 86.8105 19.8046C87.1247 20.6462 87.6072 21.3194 88.258 21.8243C88.92 22.3292 89.7447 22.5817 90.7321 22.5817C91.641 22.5817 92.4264 22.318 93.0884 21.7907C93.7617 21.2633 94.2329 20.5564 94.5022 19.67L97.6664 20.865C97.1166 22.4022 96.2358 23.6028 95.024 24.4668C93.8121 25.3195 92.3927 25.7459 90.7658 25.7459Z" fill="#2E2E2E"/>
<path d="M100.579 1.64422H104.113V10.8675C104.708 10.0147 105.443 9.37515 106.318 8.94877C107.193 8.51117 108.119 8.29237 109.095 8.29237C110.442 8.29237 111.569 8.60655 112.478 9.2349C113.398 9.86325 114.077 10.6936 114.515 11.7259C114.952 12.7581 115.177 13.897 115.188 15.1425V25.4261H111.653V15.6643C111.653 14.3515 111.395 13.3248 110.879 12.5842C110.363 11.8324 109.488 11.4566 108.254 11.4566C107.367 11.4566 106.61 11.6754 105.981 12.113C105.364 12.5506 104.899 13.1565 104.585 13.9307C104.27 14.6937 104.113 15.5689 104.113 16.5563V25.4261H100.579V1.64422Z" fill="#2E2E2E"/>
<path d="M119.346 8.61216H122.931V10.9685C123.481 10.1045 124.215 9.44248 125.136 8.98244C126.067 8.52239 127.065 8.29237 128.131 8.29237C129.613 8.29237 130.897 8.68509 131.986 9.47053C133.074 10.256 133.899 11.3163 134.46 12.6515C135.032 13.9756 135.318 15.4342 135.318 17.0275C135.318 18.6209 135.032 20.0851 134.46 21.4204C133.899 22.7444 133.068 23.7991 131.969 24.5846C130.88 25.3588 129.585 25.7459 128.081 25.7459C127.015 25.7459 126.028 25.5215 125.119 25.0727C124.21 24.6126 123.481 23.945 122.931 23.0698V32.394H119.346V8.61216ZM127.273 22.5817C128.26 22.5817 129.091 22.3405 129.764 21.858C130.448 21.3755 130.959 20.7135 131.296 19.8719C131.632 19.0304 131.801 18.0823 131.801 17.0275C131.801 15.9616 131.632 15.0135 131.296 14.1831C130.959 13.3528 130.448 12.702 129.764 12.2308C129.091 11.7483 128.26 11.5071 127.273 11.5071C126.286 11.5071 125.439 11.7483 124.732 12.2308C124.036 12.702 123.509 13.3528 123.15 14.1831C122.79 15.0135 122.611 15.9616 122.611 17.0275C122.611 18.0823 122.79 19.0304 123.15 19.8719C123.509 20.7135 124.036 21.3755 124.732 21.858C125.439 22.3405 126.286 22.5817 127.273 22.5817Z" fill="#2E2E2E"/>
<path d="M144.576 8.29237C146.046 8.29237 147.314 8.5785 148.38 9.15074C149.445 9.72299 150.259 10.5309 150.82 11.5744C151.381 12.6067 151.662 13.8129 151.662 15.193V25.4261H148.783L148.548 22.8005C148.009 23.743 147.229 24.4724 146.208 24.9885C145.199 25.4934 144.138 25.7459 143.027 25.7459C141.872 25.7459 140.839 25.5327 139.931 25.1063C139.022 24.6799 138.309 24.0628 137.793 23.2549C137.277 22.4358 137.019 21.4709 137.019 20.36C137.019 18.6545 137.625 17.4203 138.837 16.6573C140.048 15.8943 141.709 15.5128 143.818 15.5128H148.497C148.475 14.5142 148.34 13.7175 148.093 13.1228C147.847 12.5169 147.443 12.0681 146.882 11.7763C146.332 11.4846 145.569 11.3387 144.593 11.3387C143.639 11.3387 142.803 11.5632 142.085 12.012C141.378 12.4608 140.794 13.0667 140.334 13.8297L137.675 11.911C138.528 10.7328 139.504 9.83519 140.604 9.21807C141.715 8.60094 143.039 8.29237 144.576 8.29237ZM143.717 22.7837C144.593 22.7837 145.367 22.5929 146.04 22.2114C146.725 21.8299 147.274 21.3194 147.689 20.6798C148.105 20.0403 148.374 19.3334 148.497 18.5591V18.0374H144.02C142.898 18.0374 142.046 18.2618 141.462 18.7106C140.879 19.1482 140.587 19.7317 140.587 20.461C140.587 21.1679 140.856 21.7346 141.395 22.1609C141.933 22.5761 142.708 22.7837 143.717 22.7837Z" fill="#2E2E2E"/>
<path d="M161.693 8.29237C163.163 8.29237 164.431 8.5785 165.497 9.15074C166.563 9.72299 167.377 10.5309 167.938 11.5744C168.499 12.6067 168.779 13.8129 168.779 15.193V25.4261H165.901L165.665 22.8005C165.127 23.743 164.347 24.4724 163.326 24.9885C162.316 25.4934 161.256 25.7459 160.145 25.7459C158.989 25.7459 157.957 25.5327 157.048 25.1063C156.139 24.6799 155.427 24.0628 154.911 23.2549C154.394 22.4358 154.136 21.4709 154.136 20.36C154.136 18.6545 154.742 17.4203 155.954 16.6573C157.166 15.8943 158.827 15.5128 160.936 15.5128H165.615C165.592 14.5142 165.458 13.7175 165.211 13.1228C164.964 12.5169 164.56 12.0681 163.999 11.7763C163.449 11.4846 162.686 11.3387 161.71 11.3387C160.756 11.3387 159.921 11.5632 159.202 12.012C158.496 12.4608 157.912 13.0667 157.452 13.8297L154.793 11.911C155.646 10.7328 156.622 9.83519 157.721 9.21807C158.832 8.60094 160.156 8.29237 161.693 8.29237ZM160.835 22.7837C161.71 22.7837 162.484 22.5929 163.158 22.2114C163.842 21.8299 164.392 21.3194 164.807 20.6798C165.222 20.0403 165.492 19.3334 165.615 18.5591V18.0374H161.138C160.016 18.0374 159.163 18.2618 158.58 18.7106C157.996 19.1482 157.704 19.7317 157.704 20.461C157.704 21.1679 157.974 21.7346 158.512 22.1609C159.051 22.5761 159.825 22.7837 160.835 22.7837Z" fill="#2E2E2E"/>
<path d="M178.441 25.7459C176.859 25.7459 175.624 25.3027 174.738 24.4163C173.863 23.5298 173.425 22.3068 173.425 20.7471V11.5407H170.665V8.61216H173.476V4.20249L176.892 1.71154V8.61216H181.268V11.5407H176.892V20.1581C176.892 21.0557 177.077 21.7009 177.448 22.0936C177.818 22.4751 178.351 22.6659 179.047 22.6659C179.72 22.6659 180.455 22.4863 181.251 22.1273L181.268 25.2746C180.932 25.3981 180.505 25.5046 179.989 25.5944C179.473 25.6954 178.957 25.7459 178.441 25.7459Z" fill="#2E2E2E"/>
<path d="M183.911 1.64422H187.446V10.8675C188.04 10.0147 188.775 9.37515 189.651 8.94877C190.526 8.51117 191.452 8.29237 192.428 8.29237C193.774 8.29237 194.902 8.60655 195.811 9.2349C196.731 9.86325 197.41 10.6936 197.847 11.7259C198.285 12.7581 198.509 13.897 198.52 15.1425V25.4261H194.986V15.6643C194.986 14.3515 194.728 13.3248 194.212 12.5842C193.696 11.8324 192.82 11.4566 191.586 11.4566C190.7 11.4566 189.942 11.6754 189.314 12.113C188.697 12.5506 188.231 13.1565 187.917 13.9307C187.603 14.6937 187.446 15.5689 187.446 16.5563V25.4261H183.911V1.64422Z" fill="#2E2E2E"/>
<path d="M207.677 25.7459C206.555 25.7459 205.512 25.5439 204.547 25.14C203.593 24.7248 202.779 24.1694 202.106 23.4737C201.444 22.7668 200.973 21.9814 200.692 21.1174L203.486 19.8888C203.789 20.7191 204.266 21.4204 204.917 21.9926C205.568 22.5537 206.432 22.8342 207.509 22.8342C208.182 22.8342 208.749 22.722 209.209 22.4976C209.68 22.2731 210.033 21.9814 210.269 21.6224C210.505 21.2633 210.622 20.8818 210.622 20.4779C210.622 20.0178 210.471 19.6475 210.168 19.367C209.865 19.0753 209.484 18.8453 209.024 18.677C208.563 18.5087 207.924 18.3179 207.105 18.1047C205.972 17.813 205.046 17.5212 204.328 17.2295C203.621 16.9266 203.009 16.4665 202.493 15.8494C201.988 15.221 201.736 14.3795 201.736 13.3248C201.736 12.2476 202.011 11.3331 202.561 10.5814C203.11 9.81836 203.845 9.24612 204.765 8.86462C205.685 8.48312 206.701 8.29237 207.812 8.29237C209.203 8.29237 210.432 8.60655 211.498 9.2349C212.564 9.86325 213.411 10.7497 214.039 11.8942L211.346 13.3584C210.505 11.8212 209.287 11.0526 207.694 11.0526C206.897 11.0526 206.258 11.2265 205.775 11.5744C205.304 11.911 205.068 12.343 205.068 12.8703C205.068 13.2631 205.209 13.5941 205.489 13.8634C205.781 14.1214 206.145 14.3346 206.583 14.5029C207.021 14.66 207.621 14.8452 208.384 15.0583C209.562 15.3837 210.527 15.7147 211.279 16.0514C212.031 16.3768 212.676 16.8817 213.214 17.5661C213.764 18.2506 214.039 19.1651 214.039 20.3095C214.039 21.4989 213.742 22.5032 213.147 23.3223C212.552 24.1301 211.773 24.736 210.808 25.14C209.843 25.5439 208.799 25.7459 207.677 25.7459Z" fill="#2E2E2E"/>
<path d="M217.406 1.64422H220.94V10.8675C221.535 10.0147 222.27 9.37515 223.145 8.94877C224.02 8.51117 224.946 8.29237 225.922 8.29237C227.269 8.29237 228.396 8.60655 229.305 9.2349C230.225 9.86325 230.904 10.6936 231.342 11.7259C231.779 12.7581 232.004 13.897 232.015 15.1425V25.4261H228.481V15.6643C228.481 14.3515 228.223 13.3248 227.706 12.5842C227.19 11.8324 226.315 11.4566 225.081 11.4566C224.194 11.4566 223.437 11.6754 222.809 12.113C222.191 12.5506 221.726 13.1565 221.412 13.9307C221.097 14.6937 220.94 15.5689 220.94 16.5563V25.4261H217.406V1.64422Z" fill="#2E2E2E"/>
<path d="M242.165 8.29237C243.635 8.29237 244.902 8.5785 245.968 9.15074C247.034 9.72299 247.848 10.5309 248.409 11.5744C248.97 12.6067 249.25 13.8129 249.25 15.193V25.4261H246.372L246.137 22.8005C245.598 23.743 244.818 24.4724 243.797 24.9885C242.787 25.4934 241.727 25.7459 240.616 25.7459C239.461 25.7459 238.428 25.5327 237.519 25.1063C236.611 24.6799 235.898 24.0628 235.382 23.2549C234.866 22.4358 234.608 21.4709 234.608 20.36C234.608 18.6545 235.214 17.4203 236.425 16.6573C237.637 15.8943 239.298 15.5128 241.407 15.5128H246.086C246.064 14.5142 245.929 13.7175 245.682 13.1228C245.435 12.5169 245.032 12.0681 244.471 11.7763C243.921 11.4846 243.158 11.3387 242.182 11.3387C241.228 11.3387 240.392 11.5632 239.674 12.012C238.967 12.4608 238.383 13.0667 237.923 13.8297L235.264 11.911C236.117 10.7328 237.093 9.83519 238.193 9.21807C239.303 8.60094 240.627 8.29237 242.165 8.29237ZM241.306 22.7837C242.181 22.7837 242.956 22.5929 243.629 22.2114C244.313 21.8299 244.863 21.3194 245.278 20.6798C245.694 20.0403 245.963 19.3334 246.086 18.5591V18.0374H241.609C240.487 18.0374 239.634 18.2618 239.051 18.7106C238.468 19.1482 238.176 19.7317 238.176 20.461C238.176 21.1679 238.445 21.7346 238.984 22.1609C239.522 22.5761 240.296 22.7837 241.306 22.7837Z" fill="#2E2E2E"/>
<path d="M256.64 25.7459C255.54 25.7459 254.699 25.4598 254.115 24.8875C253.543 24.3041 253.257 23.3447 253.257 22.0095V1.64422H256.724V21.0669C256.724 21.5719 256.842 21.959 257.077 22.2283C257.313 22.4863 257.7 22.6154 258.239 22.6154C258.519 22.6154 258.923 22.5761 259.451 22.4976L259.467 25.4261C258.424 25.6393 257.481 25.7459 256.64 25.7459Z" fill="#2E2E2E"/>
<path d="M268.119 8.29237C269.589 8.29237 270.857 8.5785 271.923 9.15074C272.989 9.72299 273.802 10.5309 274.363 11.5744C274.924 12.6067 275.205 13.8129 275.205 15.193V25.4261H272.327L272.091 22.8005C271.553 23.743 270.773 24.4724 269.752 24.9885C268.742 25.4934 267.681 25.7459 266.571 25.7459C265.415 25.7459 264.383 25.5327 263.474 25.1063C262.565 24.6799 261.852 24.0628 261.336 23.2549C260.82 22.4358 260.562 21.4709 260.562 20.36C260.562 18.6545 261.168 17.4203 262.38 16.6573C263.592 15.8943 265.252 15.5128 267.362 15.5128H272.041C272.018 14.5142 271.884 13.7175 271.637 13.1228C271.39 12.5169 270.986 12.0681 270.425 11.7763C269.875 11.4846 269.112 11.3387 268.136 11.3387C267.182 11.3387 266.346 11.5632 265.628 12.012C264.921 12.4608 264.338 13.0667 263.878 13.8297L261.218 11.911C262.071 10.7328 263.047 9.83519 264.147 9.21807C265.258 8.60094 266.582 8.29237 268.119 8.29237ZM267.261 22.7837C268.136 22.7837 268.91 22.5929 269.583 22.2114C270.268 21.8299 270.818 21.3194 271.233 20.6798C271.648 20.0403 271.917 19.3334 272.041 18.5591V18.0374H267.564C266.442 18.0374 265.589 18.2618 265.005 18.7106C264.422 19.1482 264.13 19.7317 264.13 20.461C264.13 21.1679 264.4 21.7346 264.938 22.1609C265.477 22.5761 266.251 22.7837 267.261 22.7837Z" fill="#2E2E2E"/>
<path d="M278.077 24.4236C278.077 24.0245 278.146 23.6529 278.284 23.3088C278.436 22.951 278.637 22.6414 278.885 22.3799C279.148 22.1184 279.452 21.912 279.797 21.7606C280.156 21.6092 280.536 21.5335 280.936 21.5335C281.337 21.5335 281.71 21.6092 282.055 21.7606C282.414 21.912 282.725 22.1184 282.987 22.3799C283.25 22.6414 283.457 22.951 283.609 23.3088C283.761 23.6529 283.837 24.0245 283.837 24.4236C283.837 24.8364 283.761 25.2149 283.609 25.559C283.457 25.903 283.25 26.2058 282.987 26.4673C282.725 26.7288 282.414 26.9283 282.055 27.0659C281.71 27.2173 281.337 27.293 280.936 27.293C280.536 27.293 280.156 27.2173 279.797 27.0659C279.452 26.9283 279.148 26.7288 278.885 26.4673C278.637 26.2058 278.436 25.903 278.284 25.559C278.146 25.2149 278.077 24.8364 278.077 24.4236Z" fill="#F3BD00"/>
</svg>
