<svg width="22" height="23" viewBox="0 0 22 23" fill="none" xmlns="http://www.w3.org/2000/svg">
<g id="mail_FILL0_wght300_GRAD0_opsz48 1">
<path id="Vector" d="M3.61823 17.9131C3.25156 17.9131 2.93837 17.7832 2.67865 17.5235C2.41892 17.2638 2.28906 16.9506 2.28906 16.5839V5.49225C2.28906 5.12559 2.41892 4.81239 2.67865 4.55267C2.93837 4.29295 3.25156 4.16309 3.61823 4.16309H18.3766C18.7432 4.16309 19.0564 4.29295 19.3161 4.55267C19.5759 4.81239 19.7057 5.12559 19.7057 5.49225V16.5839C19.7057 16.9506 19.5759 17.2638 19.3161 17.5235C19.0564 17.7832 18.7432 17.9131 18.3766 17.9131H3.61823ZM10.9974 11.1756L3.32031 6.111V16.5839C3.32031 16.6756 3.34705 16.7482 3.40052 16.8016C3.45399 16.8551 3.52656 16.8818 3.61823 16.8818H18.3766C18.4682 16.8818 18.5408 16.8551 18.5943 16.8016C18.6477 16.7482 18.6745 16.6756 18.6745 16.5839V6.111L10.9974 11.1756ZM10.9974 10.0756L18.4682 5.19434H3.54948L10.9974 10.0756ZM3.32031 6.111V5.19434V16.5839C3.32031 16.6756 3.34705 16.7482 3.40052 16.8016C3.45399 16.8551 3.52656 16.8818 3.61823 16.8818H3.32031V16.5839V6.111Z" fill="#2E2E2E"/>
</g>
</svg>
