<svg width="16" height="19" viewBox="0 0 16 19" fill="none" xmlns="http://www.w3.org/2000/svg">
<path d="M8.0026 8.6485C8.39983 8.6485 8.73976 8.50718 9.0224 8.22454C9.30503 7.94191 9.44635 7.60197 9.44635 7.20475C9.44635 6.80753 9.30503 6.4676 9.0224 6.18496C8.73976 5.90232 8.39983 5.761 8.0026 5.761C7.60538 5.761 7.26545 5.90232 6.98281 6.18496C6.70017 6.4676 6.55885 6.80753 6.55885 7.20475C6.55885 7.60197 6.70017 7.94191 6.98281 8.22454C7.26545 8.50718 7.60538 8.6485 8.0026 8.6485ZM8.0026 16.6464C10.004 14.8589 11.5165 13.1593 12.5401 11.5475C13.5637 9.93566 14.0755 8.5492 14.0755 7.38809C14.0755 5.55475 13.4911 4.05371 12.3224 2.88496C11.1536 1.71621 9.71371 1.13184 8.0026 1.13184C6.29149 1.13184 4.85156 1.71621 3.68281 2.88496C2.51406 4.05371 1.92969 5.55475 1.92969 7.38809C1.92969 8.5492 2.44913 9.93566 3.48802 11.5475C4.52691 13.1593 6.03177 14.8589 8.0026 16.6464ZM8.0026 18.0214C5.61927 15.9436 3.83941 14.0186 2.66302 12.2464C1.48663 10.4742 0.898438 8.85475 0.898438 7.38809C0.898438 5.17281 1.61267 3.40441 3.04115 2.08288C4.46962 0.76135 6.12344 0.100586 8.0026 0.100586C9.88177 0.100586 11.5356 0.76135 12.9641 2.08288C14.3925 3.40441 15.1068 5.17281 15.1068 7.38809C15.1068 8.85475 14.5186 10.4742 13.3422 12.2464C12.1658 14.0186 10.3859 15.9436 8.0026 18.0214Z" fill="#2E2E2E"/>
</svg>
