<svg width="382" height="562" viewBox="0 0 382 562" fill="none" xmlns="http://www.w3.org/2000/svg">
<path d="M290.794 353.02C288.685 348.273 286.402 343.461 283.946 338.585C287.302 336.696 290.58 334.792 293.782 332.875C354.094 296.51 388.637 251.959 380.547 216.249C372.802 181.989 325.605 157.833 259.356 150.574C252.835 149.872 246.295 149.328 239.737 148.94C239.813 144.566 239.818 140.19 239.752 135.812C238.391 65.3594 217.056 13.1971 182.062 2.35983C148.526 -8.05547 104.018 20.7877 64.6288 74.5535C60.7407 79.8613 56.9989 85.2554 53.4034 90.7356C49.6481 88.4698 45.8512 86.2726 42.0126 84.1439C-19.6952 50.1673 -75.5258 42.6013 -102.411 67.5107C-128.174 91.3638 -125.448 144.344 -98.5349 205.293C-95.846 211.32 -93.0167 217.289 -90.0472 223.2C-96.8718 226.883 -103.399 230.689 -109.61 234.563C-165.105 269.186 -196.111 310.805 -188.386 344.936C-180.407 380.215 -131.133 406.237 -63.5377 413.487C-58.0582 414.069 -52.5662 414.512 -47.0617 414.817C-47.2289 421.911 -47.1868 429.02 -46.9353 436.143C-44.6364 501.512 -24.0959 549.152 9.32922 559.532C43.8685 570.259 91.0329 540.531 131.09 485.598C134.267 481.27 137.365 476.705 140.478 471.991C146.562 475.672 152.751 479.182 159.044 482.521C216.8 513.194 268.346 519.215 294.027 495.428C320.568 470.84 318.358 415.119 290.794 353.02ZM-85.4839 85.7781C-68.9362 70.4548 -23.3006 76.626 29.9725 105.998C33.3814 107.871 36.8265 109.857 40.3078 111.956C27.1122 134.806 15.4463 158.506 5.38701 182.9C-19.6162 190.957 -44.072 200.623 -67.8274 211.837C-70.585 206.359 -73.2087 200.81 -75.6986 195.191C-98.7962 143 -101.008 100.167 -85.4839 85.7781ZM-26.7647 278.952C-37.6227 263.761 -47.4278 248.622 -55.9901 233.807C-40.5871 226.497 -23.948 219.631 -6.40318 213.291C-10.3199 224.067 -13.9703 234.936 -17.3543 245.898C-20.7568 256.854 -23.8937 267.872 -26.7647 278.952ZM-60.848 388.698C-86.6615 386.577 -111.864 379.723 -135.197 368.479C-141.741 365.872 -147.68 361.95 -152.648 356.955C-157.616 351.961 -161.507 346.001 -164.08 339.443C-168.797 318.738 -143.878 285.308 -96.4155 255.703C-90.4587 251.994 -84.3937 248.462 -78.2205 245.106C-65.0213 267.911 -50.3282 289.818 -34.2375 310.685C-39.8426 336.809 -43.7158 363.275 -45.8319 389.911C-50.8376 389.639 -55.8552 389.241 -60.8845 388.717L-60.848 388.698ZM206.46 226.197C198.947 217.409 191.263 208.782 183.407 200.316C175.657 191.964 167.745 183.775 159.671 175.75C177.593 173.978 195.592 173.096 213.602 173.105C212.116 190.911 209.732 208.631 206.46 226.197ZM84.7667 89.2674C118.486 43.2387 154.5 19.9122 174.722 26.1926C196.262 32.8516 213.682 75.4912 214.863 136.298C214.933 140.27 214.922 144.237 214.832 148.2C188.496 148.184 162.189 149.91 136.081 153.367C116.64 135.623 96.0247 119.211 74.3744 104.242C77.72 99.1732 81.1842 94.1815 84.7667 89.2674ZM61.3066 125.472C76.0611 135.697 90.2907 146.661 103.941 158.32C81.28 162.317 58.8593 167.377 36.6789 173.499C44.4263 156.42 52.6922 140.327 61.3066 125.472ZM-13.7867 336.093C-6.39729 344.883 1.20342 353.484 9.01551 361.897C16.9787 370.478 25.1318 378.874 33.4748 387.084C15.4353 389.158 -2.69873 390.306 -20.8558 390.521C-19.395 372.283 -17.0386 354.128 -13.7953 336.121L-13.7867 336.093ZM110.972 470.921C96.2338 492.213 77.7034 510.611 56.3062 525.195C50.7841 529.566 44.4242 532.758 37.6197 534.574C30.8151 536.39 23.7104 536.792 16.7447 535.753C-3.5611 529.447 -20.0518 491.189 -21.9896 435.277C-22.2181 428.671 -22.2623 422.06 -22.122 415.446C4.39169 415.156 30.8552 413.069 57.0865 409.199C76.8102 426.983 97.6805 443.452 119.562 458.501C116.789 462.71 113.926 466.85 110.972 470.921ZM132.508 437.173C117.48 426.807 102.966 415.715 89.0173 403.937C100.009 401.914 111.155 399.624 122.456 397.066C134.062 394.44 145.452 391.595 156.625 388.529C149.423 405.145 141.374 421.381 132.508 437.173ZM185.989 308.927C180.735 325.844 174.958 342.578 168.657 359.129C152.036 364.167 134.731 368.749 116.963 372.76C99.2315 376.751 81.9111 380.107 65.0749 382.788C52.0017 370.665 39.4043 358.059 27.2829 344.97C15.2369 331.964 3.6954 318.515 -7.34176 304.622C-3.3936 287.32 1.21025 270.202 6.46981 253.266C11.7236 236.349 17.6059 219.638 24.1166 203.132C58.0545 192.711 92.7311 184.868 127.85 179.672C140.714 191.75 153.143 204.273 165.139 217.243C177.191 230.229 188.817 243.603 200.018 257.363C195.953 274.711 191.277 291.899 185.989 308.927ZM256.675 175.335C313.438 181.572 351.599 201.089 356.269 221.75C361.253 243.76 333.036 280.136 280.925 311.535C278.045 313.267 275.089 314.985 272.055 316.69C258.521 293.836 243.447 271.931 226.937 251.125C232.536 225.65 236.422 199.83 238.572 173.836C244.767 174.212 250.801 174.712 256.675 175.335ZM219.446 282.424C230.379 297.133 240.542 312.4 249.893 328.162C233.26 336.061 216.225 343.086 198.859 349.206C202.712 338.309 206.351 327.345 209.776 316.314C213.26 305.098 216.483 293.802 219.446 282.424ZM277.136 477.142C261.539 491.569 220.156 486.749 170.731 460.527C165.066 457.526 159.322 454.255 153.498 450.716C166.42 427.723 177.773 403.883 187.479 379.359C212.908 371.314 237.753 361.53 261.839 350.075C264.071 354.494 266.141 358.842 268.05 363.121C279.138 386.525 285.822 411.77 287.769 437.595C288.795 444.564 288.381 451.669 286.552 458.471C284.723 465.273 281.519 471.627 277.136 477.142ZM84.6126 229.799C74.5645 232.073 65.4162 237.275 58.3244 244.748C51.2327 252.22 46.516 261.628 44.7707 271.781C43.0254 281.935 44.3299 292.377 48.5192 301.789C52.7086 311.201 59.5947 319.16 68.3068 324.658C77.0189 330.157 87.1658 332.948 97.4645 332.68C107.763 332.412 117.751 329.097 126.165 323.153C134.58 317.208 141.043 308.903 144.737 299.286C148.431 289.669 149.191 279.172 146.92 269.123C145.411 262.45 142.603 256.139 138.656 250.55C134.708 244.962 129.698 240.206 123.912 236.555C118.126 232.903 111.677 230.427 104.934 229.268C98.1912 228.109 91.2859 228.289 84.6126 229.799Z" fill="#00D8FF" fill-opacity="0.2" />
</svg>
