<svg width="466" height="562" viewBox="0 0 466 562" fill="none" xmlns="http://www.w3.org/2000/svg">
<path d="M91.3236 353.02C93.4327 348.273 95.7152 343.461 98.1714 338.585C94.8155 336.696 91.5367 334.792 88.3351 332.875C28.0233 296.51 -6.51946 251.959 1.56985 216.249C9.31557 181.989 56.5123 157.833 122.761 150.574C129.283 149.872 135.822 149.328 142.38 148.94C142.304 144.566 142.299 140.19 142.365 135.812C143.726 65.3594 165.061 13.1971 200.055 2.35983C233.591 -8.05547 278.099 20.7877 317.488 74.5535C321.376 79.8613 325.118 85.2554 328.714 90.7356C332.469 88.4698 336.266 86.2726 340.105 84.1439C401.812 50.1673 457.643 42.6013 484.528 67.5107C510.291 91.3638 507.565 144.344 480.652 205.293C477.963 211.32 475.134 217.289 472.164 223.2C478.989 226.883 485.516 230.689 491.727 234.563C547.223 269.186 578.228 310.805 570.503 344.936C562.524 380.215 513.25 406.237 445.655 413.487C440.175 414.069 434.683 414.512 429.179 414.817C429.346 421.911 429.304 429.02 429.052 436.143C426.754 501.512 406.213 549.152 372.788 559.532C338.249 570.259 291.084 540.531 251.027 485.598C247.85 481.27 244.753 476.705 241.639 471.991C235.555 475.672 229.366 479.182 223.073 482.521C165.317 513.194 113.771 519.215 88.0902 495.428C61.549 470.84 63.7595 415.119 91.3236 353.02ZM467.601 85.7781C451.053 70.4548 405.418 76.626 352.145 105.998C348.736 107.871 345.291 109.857 341.809 111.956C355.005 134.806 366.671 158.506 376.73 182.9C401.733 190.957 426.189 200.623 449.945 211.837C452.702 206.359 455.326 200.81 457.816 195.191C480.913 143 483.126 100.167 467.601 85.7781ZM408.882 278.952C419.74 263.761 429.545 248.622 438.107 233.807C422.704 226.497 406.065 219.631 388.52 213.291C392.437 224.067 396.087 234.936 399.471 245.898C402.874 256.854 406.011 267.872 408.882 278.952ZM442.965 388.698C468.779 386.577 493.981 379.723 517.314 368.479C523.858 365.872 529.797 361.95 534.765 356.955C539.734 351.961 543.624 346.001 546.197 339.443C550.914 318.738 525.995 285.308 478.533 255.703C472.576 251.994 466.511 248.462 460.338 245.106C447.138 267.911 432.445 289.818 416.355 310.685C421.96 336.809 425.833 363.275 427.949 389.911C432.955 389.639 437.972 389.241 443.002 388.717L442.965 388.698ZM175.658 226.197C183.17 217.409 190.854 208.782 198.711 200.316C206.46 191.964 214.372 183.775 222.447 175.75C204.524 173.978 186.525 173.096 168.515 173.105C170.002 190.911 172.386 208.631 175.658 226.197ZM297.35 89.2674C263.632 43.2387 227.618 19.9122 207.395 26.1926C185.855 32.8516 168.435 75.4912 167.254 136.298C167.184 140.27 167.195 144.237 167.285 148.2C193.621 148.184 219.928 149.91 246.036 153.367C265.477 135.623 286.092 119.211 307.743 104.242C304.397 99.1732 300.933 94.1815 297.35 89.2674ZM320.811 125.472C306.056 135.697 291.827 146.661 278.176 158.32C300.837 162.317 323.258 167.377 345.438 173.499C337.691 156.42 329.425 140.327 320.811 125.472ZM395.904 336.093C388.514 344.883 380.914 353.484 373.102 361.897C365.138 370.478 356.985 378.874 348.642 387.084C366.682 389.158 384.816 390.306 402.973 390.521C401.512 372.283 399.156 354.128 395.913 336.121L395.904 336.093ZM271.146 470.921C285.883 492.213 304.414 510.611 325.811 525.195C331.333 529.566 337.693 532.758 344.498 534.574C351.302 536.39 358.407 536.792 365.373 535.753C385.678 529.447 402.169 491.189 404.107 435.277C404.335 428.671 404.379 422.06 404.239 415.446C377.726 415.156 351.262 413.069 325.031 409.199C305.307 426.983 284.437 443.452 262.555 458.501C265.328 462.71 268.191 466.85 271.146 470.921ZM249.609 437.173C264.637 426.807 279.151 415.715 293.1 403.937C282.108 401.914 270.962 399.624 259.662 397.066C248.055 394.44 236.665 391.595 225.492 388.529C232.694 405.145 240.743 421.381 249.609 437.173ZM196.128 308.927C201.382 325.844 207.159 342.578 213.46 359.129C230.082 364.167 247.386 368.749 265.154 372.76C282.886 376.751 300.206 380.107 317.042 382.788C330.115 370.665 342.713 358.059 354.834 344.97C366.88 331.964 378.422 318.515 389.459 304.622C385.511 287.32 380.907 270.202 375.647 253.266C370.394 236.349 364.511 219.638 358.001 203.132C324.063 192.711 289.386 184.868 254.267 179.672C241.403 191.75 228.974 204.273 216.978 217.243C204.926 230.229 193.3 243.603 182.1 257.363C186.164 274.711 190.84 291.899 196.128 308.927ZM125.442 175.335C68.6796 181.572 30.5179 201.089 25.848 221.75C20.8642 243.76 49.0811 280.136 101.193 311.535C104.072 313.267 107.029 314.985 110.062 316.69C123.596 293.836 138.67 271.931 155.18 251.125C149.582 225.65 145.695 199.83 143.545 173.836C137.351 174.212 131.316 174.712 125.442 175.335ZM162.671 282.424C151.738 297.133 141.575 312.4 132.225 328.162C148.858 336.061 165.892 343.086 183.258 349.206C179.406 338.309 175.766 327.345 172.341 316.314C168.857 305.098 165.634 293.802 162.671 282.424ZM104.981 477.142C120.578 491.569 161.961 486.749 211.386 460.527C217.051 457.526 222.795 454.255 228.619 450.716C215.697 427.723 204.345 403.883 194.638 379.359C169.209 371.314 144.364 361.53 120.278 350.075C118.046 354.494 115.976 358.842 114.068 363.121C102.98 386.525 96.2949 411.77 94.3481 437.595C93.3223 444.564 93.7366 451.669 95.5654 458.471C97.3942 465.273 100.599 471.627 104.981 477.142ZM297.505 229.799C307.553 232.073 316.701 237.275 323.793 244.748C330.884 252.22 335.601 261.628 337.347 271.781C339.092 281.935 337.787 292.377 333.598 301.789C329.409 311.201 322.523 319.16 313.81 324.658C305.098 330.157 294.951 332.948 284.653 332.68C274.354 332.412 264.366 329.097 255.952 323.153C247.537 317.208 241.075 308.903 237.38 299.286C233.686 289.669 232.927 279.172 235.198 269.123C236.706 262.45 239.514 256.139 243.462 250.55C247.409 244.962 252.419 240.206 258.205 236.555C263.991 232.903 270.44 230.427 277.183 229.268C283.926 228.109 290.831 228.289 297.505 229.799Z" fill="#00D8FF" fill-opacity="0.2" />
</svg>
